<?xml version="1.0" encoding="utf-8"?>
<!-- Generator: Adobe Illustrator 26.5.0, SVG Export Plug-In . SVG Version: 6.00 Build 0)  -->
<svg version="1.1" xmlns="http://www.w3.org/2000/svg" xmlns:xlink="http://www.w3.org/1999/xlink" x="0px" y="0px"
	 viewBox="0 0 24 24" style="enable-background:new 0 0 24 24;" xml:space="preserve">
<style type="text/css">
	.st0{display:none;}
	.st1{display:inline;stroke:#000000;stroke-width:0.5;stroke-miterlimit:10;}
	.st2{display:inline;}
	.st3{fill:#595959;}
</style>
<g id="Layer_1" class="st0">
	<path class="st1" d="M20.3,15.3c0-0.7-0.2-1.5-0.6-2.4C19.2,11.2,18,9.9,16.3,9c-0.6-0.3-1.2-0.6-1.8-1l-1.6-0.9
		c-0.5-0.3-1.1-0.6-1.6-0.9c-0.5-0.2-0.8-0.2-1-0.1C10.1,6.3,9.8,6.5,9.7,7c-0.4,1.6,0.2,3,1.6,3.9c1,0.6,2,1.1,3,1.7l0.2,0.1
		c0.8,0.4,1.4,1.2,1.7,2.1c0.2,0.9,0,1.8-0.5,2.6c-0.7,1-2.2,1.5-3.2,1.1c-0.8-0.3-1.7-0.7-2.6-1.2c-1.1-0.7-3.6-0.2-4.4,0.7
		c-0.6,0.7-0.8,1.7-0.4,2.4c0.6,0.9,1.5,1.2,2.5,0.9c0.5-0.2,1-0.1,1.5,0.2c1.1,0.7,2.3,1.1,3.5,1.2l0,0l0,0c2.2,0,4-0.6,5.4-1.9
		C19.7,19.2,20.5,17.3,20.3,15.3z"/>
</g>
<g id="Layer_2" class="st0">
	<path class="st2" d="M19.3,3.2c-0.6-1.3-1.9-1.8-3.5-1.3C15.7,2,15.6,2,15.5,2l-0.4-0.2c-0.8-0.4-1.6-0.8-2.6-1.1
		c-1.6-0.5-3-0.5-5.1,0.6C4.9,2.6,3.4,4.7,3.1,7.6c-0.2,1,0,2,0.3,3c0.5,1.2,1.1,2.6,2.6,3.6c0.8,0.5,1.6,1,2.3,1.5
		c1.3,0.8,2.6,1.5,4,2.2c0.2,0.1,0.5,0.2,0.7,0.2c0.2,0,0.5,0,0.7-0.1c0.5-0.2,0.8-0.6,1-1.1c0.5-1.4-0.3-3.5-1.6-4.3
		c-0.4-0.2-0.9-0.5-1.3-0.7c-0.8-0.5-1.6-0.9-2.4-1.4C8.7,10,8.2,9.2,8.2,8.3c-0.1-0.9,0.3-1.7,1-2.3c0.6-0.5,1.3-0.6,2.2-0.4
		c0.6,0.2,1.2,0.5,1.9,0.8l0.3,0.1c1.6,0.8,3.2,0.7,4.9-0.4C19.5,5.6,19.9,4.3,19.3,3.2z"/>
</g>
<g id="Layer_3">
	<path class="st3" d="M12.5,23.9c-1.4-0.1-2.6-0.4-3.8-1c-0.7-0.4-1.4-0.4-2.2-0.1c-0.8,0.3-1.6,0.1-2.2-0.6c-0.4-0.5-0.3-1.5,0.2-2
		c0.7-0.8,3.1-1.5,4.2-1c1,0.5,2,0.9,3.1,1.2c1.5,0.4,3.4-0.4,4.2-1.7c1.4-2.3,0.3-5.1-1.9-6c-1.2-0.5-2.5-1.1-3.7-1.7
		c-1.4-0.7-2.2-2-1.9-3.7c0.1-0.5,0.5-0.7,1-0.5C10.4,7,11.2,7.4,12,7.8c1.1,0.5,2.2,1.1,3.4,1.6c1.8,0.8,3.1,2,3.9,3.8
		c0.4,0.8,0.7,1.7,0.8,2.5c0.3,2.3-0.5,4.2-2,5.9C16.6,23.1,14.7,23.8,12.5,23.9z"/>
	<path class="st3" d="M2.7,8.8c0.1-2.9,1.3-5,3.8-6.5C8,1.4,9.6,1.1,11.4,1.4c1.2,0.2,2.2,0.7,3.2,1.1c0.5,0.2,0.8,0.2,1.3,0
		C17,2,17.9,2.2,18.4,3.1c0.4,0.7,0.2,1.5-0.4,2c-1.3,1-2.8,1.4-4.4,0.7c-0.9-0.4-1.8-0.8-2.7-1C9.7,4.5,8.5,4.7,7.5,5.7
		c-2.2,2.1-1.6,5.4,0.9,6.7c1.4,0.7,2.9,1.4,4.4,2.1c1,0.5,1.8,2.3,1.5,3.4c-0.2,0.6-0.6,0.8-1.1,0.6c-1.5-0.7-3.1-1.4-4.6-2.2
		c-0.9-0.4-1.8-0.9-2.7-1.4c-1.3-0.7-2.1-2-2.7-3.3C2.8,10.7,2.6,9.7,2.7,8.8z"/>
</g>
</svg>
