<svg xmlns="http://www.w3.org/2000/svg" xml:space="preserve" id="Layer_1" x="0" y="0" style="enable-background:new 0 0 512 512" version="1.1" viewBox="0 0 512 512"><style>.st0{fill:#fff}</style><path d="M476.6 57.3c-.3-8-.5-15.9-.8-24.1-3.7-.6-7.4-1.3-11-1.9-10.4-1.7-20.8-3.4-31.2-5-9.5-1.4-19.1-2.7-28.6-3.9-9.4-1.2-18.7-2.2-28.1-3.2-8.8-.9-17.7-1.7-26.6-2.3-10.2-.8-20.4-1.5-30.7-2-11.2-.6-22.4-.9-33.7-1.3-2.1-.1-4.3-.2-6.4-.4h-46.4c-.7.1-1.4.2-2.2.3-7.6.2-15.2.4-22.8.7-11.8.6-23.5 1.2-35.3 2-9.9.6-19.7 1.4-29.5 2.3-10.8 1-21.6 2.3-32.4 3.6-9.9 1.2-19.8 2.5-29.7 3.9-11.9 1.8-23.8 3.7-35.8 5.7-2.9.5-5.9 1-8.8 1.5-.2 4.8-.4 9.3-.5 13.8-.4 24.8-1 49.6-1.1 74.4-.1 23.8 1.2 47.5 4.1 71.1 1.6 13.4 3.7 26.7 6.1 39.9 4.7 25.7 11.9 50.6 21.8 74.8 25.2 61.8 65.2 112 118.8 151.5 21.6 15.9 44.9 29 69.4 39.9.6.3 1.6.2 2.2-.1 29.2-13 56.4-29.2 81.3-49.1 27.6-22.1 51.5-47.6 71.5-76.8 29.7-43.4 47.9-91.4 57.4-142.8 2.5-13.6 4.3-27.4 6-41.1 1.2-10.2 1.8-20.5 2.6-30.8.3-3.3.5-6.6.7-9.9V62.2c-.1-1.6-.2-3.3-.3-4.9zm-12.6 79c-.2 12.3-1.2 24.5-2.1 36.7-1.4 19.9-4.2 39.7-8.2 59.3-10.4 51.8-29.8 99.8-61.4 142.5-15.6 21-33.4 40-53.4 57-24.6 21-51.6 38.4-81 51.9-1.2.6-2.2.6-3.4 0-29.8-13.7-57.1-31.4-82-52.8-36.7-31.6-65.7-69-86.2-112.9-11.4-24.5-20-50-25.6-76.4-3.1-14.5-5.5-29.1-7.6-43.8-1.5-10.4-2.2-20.8-3.1-31.3-2.3-27.4-2.1-54.8-1.8-82.3.2-13.1.7-26.1 1-39.5 6.1-1 12.1-2 18.1-2.9 8.8-1.3 17.7-2.7 26.5-3.9 8.5-1.1 17-2.1 25.5-3.1 7.5-.9 15-1.7 22.5-2.4 7.6-.7 15.1-1.4 22.7-1.9 11.7-.8 23.4-1.7 35.1-2.1 15.6-.6 31.2-1.1 46.7-1.2 15.6-.1 31.3 0 47 .5 13.9.4 27.7 1.2 41.5 2.1 11.5.7 23 1.6 34.5 2.7 12.7 1.2 25.5 2.7 38.2 4.3 10.2 1.2 20.4 2.7 30.6 4.2 7.8 1.1 15.6 2.5 23.4 3.7 1.3.2 1.5 1 1.5 2 .3 11.9.8 23.8.9 35.7.3 17.9.4 35.9.1 53.9z"/><path d="M455.3 51.6c-132.8-22.2-265.4-22.1-398.1 0 0 .3-.1.5-.1.8-.3 9.5-.5 19-.8 28.5-.6 27.5-.6 55 1.5 82.4 1.1 13.9 2.6 27.8 4.4 41.7 2.3 17.8 6 35.3 10.7 52.7 14.9 55 41.4 103.5 80.9 144.7 27.6 28.7 59.2 52 94.9 69.7 2.5 1.2 5 3.3 7.5 3.3 2.6 0 5.1-2 7.7-3.3 46.8-23.4 86.3-55.6 118.4-97 23.5-30.4 40.7-64.1 52.5-100.7 10.3-31.9 16.1-64.7 19-98 1.3-15.2 2.4-30.5 2.5-45.7.2-25.3-.4-50.6-.6-75.9-.2-1-.3-2-.4-3.2z"/><path d="M271.2 383.6c-17.6-.7-34.3-5.2-49.9-13.3-9.3-4.9-18.6-5.2-28.2-1-10.2 4.5-21.1 1.2-28.1-8.2-4.9-6.6-3.3-19 2.7-26.5 8.7-10.8 40.5-19.6 54.2-12.4 12.6 6.6 26.4 11.1 40.1 15 19.5 5.6 43.7-5.8 54.2-22.4 18.7-29.4 4.4-66.3-24.4-78.7-16.2-7-32.5-13.8-47.9-22.3-17.6-9.6-28.8-25.6-24.1-47.8 1.4-6.8 5.9-9.7 13.1-6.8 10.7 4.3 21.1 9.4 31.6 14.3 14.7 6.8 29.3 14 44 20.6 22.8 10.3 40.9 25.8 51 49 4.6 10.5 8.6 21.8 10 33.1 3.8 29.5-6.8 54.9-26.6 76.3-19.2 20.5-43.8 29.7-71.7 31.1z" class="st0"/><path d="M142.5 185.7c.7-37.5 17.1-65.7 49.9-84.5 19.8-11.3 40.6-14.6 63.4-11.7 15.3 2 28.1 9 41.7 14.5 5.9 2.3 10.9 2.2 16.7-.2 15-6.2 27-2.9 33.5 8.6 4.8 8.6 3.1 20-5 25.8-17.5 12.4-36.2 18.2-57.5 8.9-11.4-5-22.9-10.5-34.9-12.9-16.4-3.3-32.3-.7-45.4 11.7-29.1 27.5-20.9 70.6 11.2 87.4 18.6 9.7 37.9 18.4 56.8 27.6 13.6 6.6 24 29.7 19.9 44-2 7.2-7.5 10.3-14.2 7.3-20-9.2-39.9-18.5-59.7-28.1-11.8-5.8-23.5-12-34.9-18.5-17.1-9.8-26.9-25.7-34.8-43-5.3-11.8-7.9-23.9-6.7-36.9z" class="st0"/></svg>